<?xml version="1.0" encoding="UTF-8"?>
<svg version="1.1" xmlns="http://www.w3.org/2000/svg" width="500" height="500">
<path d="M0 0 C165 0 330 0 500 0 C500 165 500 330 500 500 C335 500 170 500 0 500 C0 335 0 170 0 0 Z " fill="#FEFEFE" transform="translate(0,0)"/>
<path d="M0 0 C2.64 0 5.28 0 8 0 C8.33 1.98 8.66 3.96 9 6 C9.99 6.33 10.98 6.66 12 7 C12.66 5.35 13.32 3.7 14 2 C16.02045442 2.60183749 18.02111039 3.27306096 20 4 C20.495 4.99 20.495 4.99 21 6 C20.06553465 8.03144641 19.06775224 10.03533587 18 12 C20.76276177 11.47731534 23.3260876 10.89130413 26 10 C27.5625 12.3125 27.5625 12.3125 29 15 C28.67 15.99 28.34 16.98 28 18 C27.34 18 26.68 18 26 18 C25.505 20.475 25.505 20.475 25 23 C26.98 23 28.96 23 31 23 C31 25.31 31 27.62 31 30 C28.03 30.495 28.03 30.495 25 31 C25 31.99 25 32.98 25 34 C26.32 34.66 27.64 35.32 29 36 C28.75 38.375 28.75 38.375 28 41 C26.1875 42.4375 26.1875 42.4375 24 43 C21.75 42.125 21.75 42.125 20 41 C18.7922442 44.62326739 19.45688872 45.64146369 21 49 C16.25 52 16.25 52 14 52 C13.34 50.35 12.68 48.7 12 47 C10.68 47 9.36 47 8 47 C8 49.31 8 51.62 8 54 C5.66705225 54.04241723 3.33297433 54.04092937 1 54 C0 53 0 53 -0.0625 49.9375 C-0.041875 48.968125 -0.02125 47.99875 0 47 C-2.88437779 48.29299694 -4.87219421 49.65941363 -7 52 C-8.65 51.01 -10.3 50.02 -12 49 C-11.67 46.69 -11.34 44.38 -11 42 C-13.62113708 42 -15.50935112 42.31292445 -18 43 C-18.99 41.02 -19.98 39.04 -21 37 C-20.360625 36.5875 -19.72125 36.175 -19.0625 35.75 C-16.79009069 33.82189513 -16.39803561 32.88575819 -16 30 C-18.31 30 -20.62 30 -23 30 C-23 27.69 -23 25.38 -23 23 C-20.69 23 -18.38 23 -16 23 C-16 21.68 -16 20.36 -16 19 C-18.475 18.01 -18.475 18.01 -21 17 C-19.125 12.25 -19.125 12.25 -18 10 C-15.69 10.66 -13.38 11.32 -11 12 C-11.33 9.69 -11.66 7.38 -12 5 C-10.68 4.01 -9.36 3.02 -8 2 C-4.125 3.75 -4.125 3.75 -3 6 C-2.34 6 -1.68 6 -1 6 C-0.67 4.02 -0.34 2.04 0 0 Z " fill="#E6E7FB" transform="translate(195,224)"/>
<path d="M0 0 C3.15930721 2.47621376 5.51421441 5.21592881 7.3125 8.8125 C7.71476867 14.04199274 7.2412695 17.41934575 4.3125 21.8125 C0.0926376 25.72359198 -3.62409351 26.54629419 -9.2109375 26.34375 C-13.36539911 25.45257212 -15.99084368 22.99570899 -18.6875 19.8125 C-20.67234289 15.84281423 -20.22928145 11.12848933 -19.6875 6.8125 C-18.04235094 3.33789056 -15.6397099 1.36377942 -12.3125 -0.5625 C-7.87094947 -1.62001203 -4.22892727 -1.86859577 0 0 Z " fill="#FEFEFE" transform="translate(205.6875,238.1875)"/>
<path d="M0 0 C1.32 0 2.64 0 4 0 C5.010625 -0.061875 6.02125 -0.12375 7.0625 -0.1875 C10 0 10 0 11.875 1.0625 C13.64273274 4.1069286 13.36823916 6.5631012 13 10 C11.875 11.9375 11.875 11.9375 10 13 C6.875 13.25 6.875 13.25 4 13 C3.67 12.67 3.34 12.34 3 12 C2.67 14.31 2.34 16.62 2 19 C1.34 19 0.68 19 0 19 C0 12.73 0 6.46 0 0 Z " fill="#33A1D7" transform="translate(234,246)"/>
<path d="M0 0 C4.33333333 0 8.66666667 0 13 0 C14.546875 -0.061875 14.546875 -0.061875 16.125 -0.125 C19 0 19 0 21 2 C21.1953125 4.6015625 21.1953125 4.6015625 21.125 7.625 C21.10695313 8.62789062 21.08890625 9.63078125 21.0703125 10.6640625 C21.04710937 11.43492187 21.02390625 12.20578125 21 13 C20.34 13 19.68 13 19 13 C18.505 8.05 18.505 8.05 18 3 C16.35 3 14.7 3 13 3 C12.67 6.3 12.34 9.6 12 13 C11.01 13 10.02 13 9 13 C8.67 9.7 8.34 6.4 8 3 C6.35 3 4.7 3 3 3 C2.67 6.3 2.34 9.6 2 13 C1.34 13 0.68 13 0 13 C0 8.71 0 4.42 0 0 Z " fill="#35A2D7" transform="translate(265,246)"/>
<path d="M0 0 C0 0.66 0 1.32 0 2 C-0.86625 1.55527344 -0.86625 1.55527344 -1.75 1.1015625 C-11.0031421 -3.42862165 -20.19302785 -4.47034765 -30.25 -1.875 C-38.79740198 1.07001831 -44.05981576 6.62714928 -49 14 C-48.34 14 -47.68 14 -47 14 C-47 14.66 -47 15.32 -47 16 C-48.32 16.33 -49.64 16.66 -51 17 C-51.8125 14.8125 -51.8125 14.8125 -52 12 C-50 9.625 -50 9.625 -47 7 C-46.50242188 6.44054687 -46.00484375 5.88109375 -45.4921875 5.3046875 C-33.61134336 -7.95364582 -14.56189366 -9.70792911 0 0 Z " fill="#5C97F7" transform="translate(219,221)"/>
<path d="M0 0 C0.70125 0.00515625 1.4025 0.0103125 2.125 0.015625 C2.82625 0.01046875 3.5275 0.0053125 4.25 0 C6.125 0.265625 6.125 0.265625 8.125 2.265625 C8.125 3.915625 8.125 5.565625 8.125 7.265625 C4.825 7.265625 1.525 7.265625 -1.875 7.265625 C-1.545 8.585625 -1.215 9.905625 -0.875 11.265625 C1.105 11.265625 3.085 11.265625 5.125 11.265625 C5.125 10.605625 5.125 9.945625 5.125 9.265625 C6.115 9.595625 7.105 9.925625 8.125 10.265625 C7 11.765625 7 11.765625 5.125 13.265625 C2.03684125 13.65164484 0.02315624 13.74464166 -2.75 12.265625 C-4.62821874 8.92656946 -4.17579454 6.05563626 -3.875 2.265625 C-1.875 0.265625 -1.875 0.265625 0 0 Z " fill="#4CACDC" transform="translate(329.875,245.734375)"/>
<path d="M0 0 C0.495 2.475 0.495 2.475 1 5 C0.01 4.67 -0.98 4.34 -2 4 C-2.24621094 4.58652344 -2.49242187 5.17304688 -2.74609375 5.77734375 C-5.99644296 11.53886617 -12.93476225 15.80151968 -19.22265625 17.55859375 C-28.90988558 19.0981956 -38.42667098 19.42842955 -47.1171875 14.38671875 C-48.93142219 13.05050856 -50.46519304 11.64581501 -52 10 C-51.67 9.34 -51.34 8.68 -51 8 C-50.30777344 8.61488281 -50.30777344 8.61488281 -49.6015625 9.2421875 C-42.93286655 14.75111024 -35.86561678 16.60649593 -27.19140625 16.30859375 C-18.11515206 15.03047596 -10.58300463 11.34845577 -4 5 C-3.67 4.34 -3.34 3.68 -3 3 C-3.66 2.34 -4.32 1.68 -5 1 C-3 0 -3 0 0 0 Z " fill="#4BACDC" transform="translate(229,267)"/>
<path d="M0 0 C0.99 0 1.98 0 3 0 C3.66 2.31 4.32 4.62 5 7 C5.99 4.69 6.98 2.38 8 0 C9.32 0.33 10.64 0.66 12 1 C12.33 3.31 12.66 5.62 13 8 C13.66 8 14.32 8 15 8 C15.33 5.69 15.66 3.38 16 1 C16.99 0.67 17.98 0.34 19 0 C18.01 3.96 17.02 7.92 16 12 C14.68 12 13.36 12 12 12 C11.34 9.69 10.68 7.38 10 5 C9.01 7.64 8.02 10.28 7 13 C6.01 13 5.02 13 4 13 C2.68 8.71 1.36 4.42 0 0 Z " fill="#40A7DA" transform="translate(288,246)"/>
<path d="M0 0 C2.5625 0.1875 2.5625 0.1875 4.5625 2.1875 C4.8125 4.6875 4.8125 4.6875 4.5625 7.1875 C2.5625 9.1875 2.5625 9.1875 0.0625 9.5 C-1.175 9.3453125 -1.175 9.3453125 -2.4375 9.1875 C-4.4375 6.1875 -4.4375 6.1875 -4.125 3.5625 C-3.16420807 0.24340062 -3.16420807 0.24340062 0 0 Z " fill="#F6FBFD" transform="translate(240.4375,247.8125)"/>
<path d="M0 0 C2.97 0 5.94 0 9 0 C7.90309312 4.38762753 6.29817473 7.14499723 4 11 C5.98 11 7.96 11 10 11 C10 11.66 10 12.32 10 13 C6.7 13 3.4 13 0 13 C1.45044271 8.89041233 3.51110752 5.56741255 6 2 C4.02 2 2.04 2 0 2 C0 1.34 0 0.68 0 0 Z " fill="#42A8DA" transform="translate(314,246)"/>
<path d="M0 0 C0.66 0 1.32 0 2 0 C2 0.99 2 1.98 2 3 C2.99 3 3.98 3 5 3 C5 3.66 5 4.32 5 5 C4.01 5 3.02 5 2 5 C2 7.97 2 10.94 2 14 C2.99 14 3.98 14 5 14 C5 14.66 5 15.32 5 16 C3.35 15.67 1.7 15.34 0 15 C0 11.7 0 8.4 0 5 C-0.66 5 -1.32 5 -2 5 C-2 4.34 -2 3.68 -2 3 C-1.34 3 -0.68 3 0 3 C0 2.01 0 1.02 0 0 Z " fill="#3FA7DA" transform="translate(251,243)"/>
<path d="M0 0 C0.33 0.99 0.66 1.98 1 3 C3.64 3 6.28 3 9 3 C9 3.33 9 3.66 9 4 C6.36 4 3.72 4 1 4 C1.33 5.32 1.66 6.64 2 8 C3.98 8 5.96 8 8 8 C8 7.34 8 6.68 8 6 C8.99 6.33 9.98 6.66 11 7 C9.875 8.5 9.875 8.5 8 10 C4.85075452 10.39365568 2.88090884 10.52854531 0.125 8.875 C-1.48515263 6.19141229 -1.26647742 4.06449028 -1 1 C-0.67 0.67 -0.34 0.34 0 0 Z " fill="#30A0D7" transform="translate(327,249)"/>
<path d="M0 0 C0 0.99 0 1.98 0 3 C-0.66 3 -1.32 3 -2 3 C-2.33 4.65 -2.66 6.3 -3 8 C-1.02 8 0.96 8 3 8 C3 10.31 3 12.62 3 15 C1.02 15.33 -0.96 15.66 -3 16 C-3 17.32 -3 18.64 -3 20 C-3.66 20 -4.32 20 -5 20 C-5.042721 18.33388095 -5.04063832 16.66617115 -5 15 C-4 14 -4 14 -0.9375 13.9375 C0.5165625 13.9684375 0.5165625 13.9684375 2 14 C2 12.35 2 10.7 2 9 C0.02 9 -1.96 9 -4 9 C-4.33 7.35 -4.66 5.7 -5 4 C-3.35 2.68 -1.7 1.36 0 0 Z " fill="#7ABCEF" transform="translate(223,239)"/>
<path d="M0 0 C0.66 0 1.32 0 2 0 C3.35862973 3.90480249 2.89469712 7.7101776 2.5625 11.75 C2.51029297 12.44738281 2.45808594 13.14476562 2.40429688 13.86328125 C2.27525928 15.57596203 2.13840386 17.28805066 2 19 C1.34 19 0.68 19 0 19 C0 12.73 0 6.46 0 0 Z " fill="#2199D4" transform="translate(234,246)"/>
<path d="M0 0 C0.99 0 1.98 0 3 0 C3 4.29 3 8.58 3 13 C2.01 13 1.02 13 0 13 C0 8.71 0 4.42 0 0 Z " fill="#59B3DE" transform="translate(309,246)"/>
<path d="M0 0 C2.64 0 5.28 0 8 0 C8.103125 0.94875 8.20625 1.8975 8.3125 2.875 C8.68539295 6.29107501 8.68539295 6.29107501 12 8 C10.35 7.67 8.7 7.34 7 7 C7 5.02 7 3.04 7 1 C5.35 1 3.7 1 2 1 C2.020625 1.969375 2.04125 2.93875 2.0625 3.9375 C2 7 2 7 1 8 C-0.66617115 8.04063832 -2.33388095 8.042721 -4 8 C-3.67 7.34 -3.34 6.68 -3 6 C-2.34 6 -1.68 6 -1 6 C-0.67 4.02 -0.34 2.04 0 0 Z " fill="#BBA2F4" transform="translate(195,224)"/>
<path d="M0 0 C0.33 1.65 0.66 3.3 1 5 C0.01 4.67 -0.98 4.34 -2 4 C-2.3403125 4.86625 -2.3403125 4.86625 -2.6875 5.75 C-4.33038023 8.5663661 -6.39533227 10.08077114 -9 12 C-9.66 11.67 -10.32 11.34 -11 11 C-10.50628906 10.59007812 -10.01257813 10.18015625 -9.50390625 9.7578125 C-8.86324219 9.21898437 -8.22257813 8.68015625 -7.5625 8.125 C-6.92441406 7.59132813 -6.28632813 7.05765625 -5.62890625 6.5078125 C-3.89194996 5.0777243 -3.89194996 5.0777243 -3 3 C-3.66 2.34 -4.32 1.68 -5 1 C-3 0 -3 0 0 0 Z " fill="#3EA6D9" transform="translate(229,267)"/>
<path d="M0 0 C3.3 0 6.6 0 10 0 C10 0.66 10 1.32 10 2 C9.01 2 8.02 2 7 2 C7 2.66 7 3.32 7 4 C5.02 4 3.04 4 1 4 C0.67 2.68 0.34 1.36 0 0 Z " fill="#E6F3FA" transform="translate(328,253)"/>
<path d="M0 0 C0.99 0 1.98 0 3 0 C3 3.3 3 6.6 3 10 C2.01 10 1.02 10 0 10 C0 6.7 0 3.4 0 0 Z " fill="#53B0DD" transform="translate(274,249)"/>
<path d="M0 0 C0.66 0 1.32 0 2 0 C3.06671952 3.20015856 2.94845472 4.88544294 2.5625 8.1875 C2.46066406 9.08855469 2.35882813 9.98960937 2.25390625 10.91796875 C2.17011719 11.60503906 2.08632813 12.29210937 2 13 C1.34 13 0.68 13 0 13 C0 8.71 0 4.42 0 0 Z " fill="#2199D4" transform="translate(265,246)"/>
<path d="M0 0 C0.66 0 1.32 0 2 0 C1.01 3.96 0.02 7.92 -1 12 C-1.99 11.34 -2.98 10.68 -4 10 C-4 9.34 -4 8.68 -4 8 C-3.34 8 -2.68 8 -2 8 C-1.855625 6.865625 -1.71125 5.73125 -1.5625 4.5625 C-1 1 -1 1 0 0 Z " fill="#4CACDC" transform="translate(305,246)"/>
<path d="M0 0 C0.66 0.33 1.32 0.66 2 1 C1.484375 1.37125 0.96875 1.7425 0.4375 2.125 C-0.2740625 3.053125 -0.2740625 3.053125 -1 4 C-0.71325582 6.00720923 -0.38133299 8.0085944 0 10 C-0.66 10.66 -1.32 11.32 -2 12 C-2.99 11.67 -3.98 11.34 -5 11 C-4.34 10.67 -3.68 10.34 -3 10 C-3.33 7.69 -3.66 5.38 -4 3 C-2.68 2.01 -1.36 1.02 0 0 Z " fill="#AAB2F7" transform="translate(187,226)"/>
<path d="M0 0 C1.98 0 3.96 0 6 0 C6.33 0.99 6.66 1.98 7 3 C4.36 3 1.72 3 -1 3 C-0.67 2.01 -0.34 1.02 0 0 Z " fill="#F1F8FC" transform="translate(329,248)"/>
<path d="M0 0 C2.8125 -0.25 2.8125 -0.25 6 0 C6.99 1.32 7.98 2.64 9 4 C5.7 3.67 2.4 3.34 -1 3 C-0.67 2.01 -0.34 1.02 0 0 Z " fill="#3DA6D9" transform="translate(238,246)"/>
<path d="M0 0 C0.33 0 0.66 0 1 0 C1.33 2.64 1.66 5.28 2 8 C2.99 8.33 3.98 8.66 5 9 C5 9.66 5 10.32 5 11 C3.35 10.67 1.7 10.34 0 10 C0 6.7 0 3.4 0 0 Z " fill="#299DD5" transform="translate(251,248)"/>
<path d="M0 0 C0 0.99 0 1.98 0 3 C-0.66 3 -1.32 3 -2 3 C-2.33 4.65 -2.66 6.3 -3 8 C-3.66 8 -4.32 8 -5 8 C-4.64950425 4.75791433 -4.43778819 3.38472296 -1.9375 1.1875 C-1.298125 0.795625 -0.65875 0.40375 0 0 Z " fill="#A7C5F3" transform="translate(223,239)"/>
</svg>
